<svg xmlns="http://www.w3.org/2000/svg" xmlns:xlink="http://www.w3.org/1999/xlink" width="396" height="502" viewBox="0 0 396 502"><defs><clipPath id="b"><rect width="396" height="502"/></clipPath></defs><g id="a" clip-path="url(#b)"><rect width="396" height="502" fill="#fff"/><g transform="translate(0 260.727)"><g transform="translate(0 55.273)"><path d="M140,165H16A16,16,0,0,1,0,149V16A16,16,0,0,1,16,0H140a16,16,0,0,1,16,16V149a16,16,0,0,1-16,16ZM33.714,37.258a4,4,0,0,0-4,4v82.484a4,4,0,0,0,4,4h88.572a4,4,0,0,0,4-4V41.258a4,4,0,0,0-4-4Z" transform="translate(45)" fill="#c5cfd6"/></g><path d="M69.932,155.767q-31.26-48.08-42.3-71.288C15.024,57.986,4.707,34.413,1.451,25.408-6.312,3.934,19.325-6.121,25.127,3.9Q38.3,26.634,81.391,147Z" transform="translate(236.135 58.177)" fill="#b28b67"/><path d="M39.911,153.1,1.126,30.137C-7.169,7.721,32.89-7.013,38.987,3.419,52.828,27.1,85.724,120.532,89.848,127.588Z" transform="translate(223.451 51.52)" fill="#2f3676"/><g transform="translate(232.653 73.529) rotate(39)"><path d="M9.809,123.874C6.945,108.332-1.087,54.746-1.615,30.31c-.152-7.022-.244-13.8-.284-20.162-.12-18.9,33.753-14.4,33.062,3.459-1.721,44.479-6.531,106.538-6.774,111.92C24.05,133.07,11.609,133.641,9.809,123.874Z" transform="translate(0 0)" fill="#b28b67"/></g><g transform="translate(161.749 164.247) rotate(30)"><path d="M4.474,5.033A2,2,0,0,0,1.908,6.381L0,13.106A64.242,64.242,0,0,0,.9,21H57.3s2.2-7.268-2.538-7.848-7.87-1.047-7.87-1.047L20.68.419a1,1,0,0,0-1.332.532L17.663,5.039s-4.385,2.046-7.127,2.046Z" transform="translate(0 -0.332)" fill="#bf2222"/></g><g transform="translate(295.498 201.072)"><path d="M4.729,6.591c-1.145-.488-2.381.33-2.711,1.8L0,17.338c0,3.6.953,10.51.953,10.51H60.571S62.9,18.172,57.888,17.4s-8.319-1.393-8.319-1.393L21.859.448a.991.991,0,0,0-1.408.709L18.671,6.6s-4.635,2.724-7.533,2.724Z" transform="translate(0 -0.332)" fill="#bf2222"/></g><path d="M101.157,87.8S52.8,77.877,36.38,74.23C5.173,67.3-3.927,46.148,1.454,0h57.5c11.413,4.151,95.379,51.349,95.379,51.349,10.071,6.3,8.2,24.864,6.355,30.981-.113.374-50.935,109.93-50.935,109.93L62.715,154.52l38.53-62.274S102.771,88.374,101.157,87.8Z" transform="translate(109.464)" fill="#5c63ab"/></g><g transform="translate(31.1 155.783)"><path d="M32.774,116.473c-1.849-1.868-3.869-3.737-8.456-1.817-5.774,2.417-11.945,1.934-17.062,1.07,5.662-5.164,13.031-15.349,14.076-17.257C24.36,92.941,50.854,21.8,50.854,21.8l22.626.076S36.265,97.236,34.671,100.79c-2.391,5.332,2.669,13.452,4.832,17.816a6.045,6.045,0,0,1-2.256.493C35.287,119.1,34.073,117.786,32.774,116.473Zm-32.633.308c.292-1.21.979-2.419,1.51-2.125,1.63.307,3.532.72,5.605,1.07-2.357,2.15-4.419,3.43-5.605,2.88a1.9,1.9,0,0,1-.94.345C-.064,118.951-.121,117.866.141,116.781ZM179.009,13.3,219.8,8.3A94.83,94.83,0,0,1,242.327,0c1.929-.051,5,.58.427,4.009s-9.21,7.222-8.4,9.052,5.065,1.149,5.77,3.964q.7,2.814-20.7.915l-33.1,11.809Z" transform="translate(0 46.548)" fill="#997659"/><path d="M0,.564,17.743.078c7.442,35,33.071,55.28,85.414,43.077L114.185,88.1C65.148,98.2,20.139,84.153,7.007,36.61,3.608,24.3.649,11.444,0,.564Z" transform="matrix(0.996, 0.087, -0.087, 0.996, 112.875, 3.217)" fill="#afb9c5"/><path d="M0,136.674Q18.449,48.344,77.881,0h1.758l.014.015,26.841,5.531c0,41.541,14.706,68.044,22.249,98.586H56.252c-1.021,10.553-1.648,21.4-1.975,32.541Z" transform="translate(23.385 0)" fill="#c5cfd6"/><path d="M14.733,60.807H0C2.213,37.936,6.115,18.047,11.928,0c-.8,12.046-1.064,22.933-.8,32.36.339,12,1.551,21.57,3.6,28.445Z" transform="translate(80.688 42.457)" fill="rgba(0,0,0,0.1)"/></g><g transform="translate(119.166 68.435)"><g transform="translate(14.834 24.901)"><path d="M0,71,8.656,33.545C3.829,28.284.561,21.837,1.107,14.614,2.681-6.2,33.889-1.621,39.959,8.884s5.35,37.152-2.5,39.03c-3.129.749-9.795-1.085-16.579-4.882L25.143,71Z" transform="translate(0 -0.336)" fill="#b28b67"/></g><path d="M46.155,23.771A35.758,35.758,0,0,0,35.54,22.689a15.669,15.669,0,0,0,1.292-8.517c-.379-2.806-1.738-5.2-2.994-7.7a10.477,10.477,0,0,0-2.215-3.185,7.778,7.778,0,0,0-3.583-1.776,10.371,10.371,0,0,0-4.127,0c-.6.116-1.139.37-1.727.51s-.9-.2-1.333-.554A7.922,7.922,0,0,0,16.921.057a10.937,10.937,0,0,0-4.476.5,8.875,8.875,0,0,0-3.728,2.2A5.747,5.747,0,0,0,7.6,4.337c-.108.24-.126.382-.386.47-.24.081-.521.084-.768.161A9.434,9.434,0,0,0,.888,9.617a13.7,13.7,0,0,0-.874,6.056C.1,18.2,2.568,24.784,4.878,27.186A15.89,15.89,0,0,0,12.9,31.365a20.7,20.7,0,0,0-4.19,7.21,32.915,32.915,0,0,0-1.918,8.758,26.423,26.423,0,0,0,.476,8.634A9.39,9.39,0,0,0,11.8,62.059a22.527,22.527,0,0,0,3.49,1.513,24.378,24.378,0,0,0,3.6,1.064c2.337.446,5.029.369,6.829-1.347a12.029,12.029,0,0,0,1.835-2.152c.17-.272.273-.45.066-.715a5.412,5.412,0,0,0-.967-.811,8.238,8.238,0,0,1-3.221-5.566c-.287-2.285.378-5.234,2.785-6.231,2.971-1.231,6.244.182,8.885,1.5a13.584,13.584,0,0,1,7.04-8.624c4-1.855,8.585-2.072,12.693-3.664a7.678,7.678,0,0,0,2.949-1.731,3.484,3.484,0,0,0,.847-1.279c.173-.614-.256-1.128-.587-1.607C56.283,29.871,49.622,24.747,46.155,23.771Z" transform="translate(0 0)" fill="#191847"/></g></g></svg>